<svg xmlns="http://www.w3.org/2000/svg" xmlns:xlink="http://www.w3.org/1999/xlink" width="4500" zoomAndPan="magnify" viewBox="0 0 3374.88 3374.999861" height="4500" preserveAspectRatio="xMidYMid meet" version="1.0"><defs><clipPath id="5ea1ea7d68"><path d="M 332.128906 7.347656 L 1101 7.347656 L 1101 664.296875 L 332.128906 664.296875 Z M 332.128906 7.347656 " clip-rule="nonzero"/></clipPath><clipPath id="4a0cf23bb8"><path d="M 716.375 7.347656 L 1100.617188 664.296875 L 332.128906 664.296875 Z M 716.375 7.347656 " clip-rule="nonzero"/></clipPath><clipPath id="098748d726"><path d="M 0.128906 0.347656 L 768 0.347656 L 768 657.296875 L 0.128906 657.296875 Z M 0.128906 0.347656 " clip-rule="nonzero"/></clipPath><clipPath id="3dda9b82e4"><path d="M 384.375 0.347656 L 768.617188 657.296875 L 0.128906 657.296875 Z M 384.375 0.347656 " clip-rule="nonzero"/></clipPath><clipPath id="9eadb68f82"><rect x="0" width="769" y="0" height="658"/></clipPath><clipPath id="a5e212a95f"><path d="M 117 605 L 859 605 L 859 1040 L 117 1040 Z M 117 605 " clip-rule="nonzero"/></clipPath><clipPath id="a98b49a86c"><path d="M 0.890625 758.234375 L 742.992188 451.734375 L 859.234375 733.179688 L 117.136719 1039.683594 Z M 0.890625 758.234375 " clip-rule="nonzero"/></clipPath><clipPath id="f6f5759c17"><path d="M 371.394531 605.210938 L 858.144531 733.632812 L 117.136719 1039.683594 Z M 371.394531 605.210938 " clip-rule="nonzero"/></clipPath><clipPath id="59771ba424"><path d="M 0 0.207031 L 741.335938 0.207031 L 741.335938 434.832031 L 0 434.832031 Z M 0 0.207031 " clip-rule="nonzero"/></clipPath><clipPath id="9cdfbb5748"><path d="M -116.109375 153.234375 L 625.992188 -153.265625 L 742.234375 128.179688 L 0.136719 434.683594 Z M -116.109375 153.234375 " clip-rule="nonzero"/></clipPath><clipPath id="2e2b567247"><path d="M 254.394531 0.210938 L 741.144531 128.632812 L 0.136719 434.683594 Z M 254.394531 0.210938 " clip-rule="nonzero"/></clipPath><clipPath id="e4735299a7"><rect x="0" width="742" y="0" height="435"/></clipPath><clipPath id="c035483c2c"><path d="M 437.648438 881.214844 L 1298.597656 881.214844 L 1298.597656 1045.203125 L 437.648438 1045.203125 Z M 437.648438 881.214844 " clip-rule="nonzero"/></clipPath><clipPath id="248304b033"><path d="M 867.855469 881.214844 L 1298.0625 1045.203125 L 437.648438 1045.203125 Z M 867.855469 881.214844 " clip-rule="nonzero"/></clipPath><clipPath id="1584aa5670"><path d="M 0.648438 0.214844 L 861 0.214844 L 861 164.203125 L 0.648438 164.203125 Z M 0.648438 0.214844 " clip-rule="nonzero"/></clipPath><clipPath id="ec6de90d9f"><path d="M 430.855469 0.214844 L 861.0625 164.203125 L 0.648438 164.203125 Z M 430.855469 0.214844 " clip-rule="nonzero"/></clipPath><clipPath id="2c2849d5ac"><rect x="0" width="862" y="0" height="165"/></clipPath><clipPath id="3e12f28ce4"><path d="M 835 764 L 1147 764 L 1147 995 L 835 995 Z M 835 764 " clip-rule="nonzero"/></clipPath><clipPath id="80e56d42b7"><path d="M 1215.867188 929.683594 L 904.25 1059.386719 L 835.363281 893.878906 L 1146.980469 764.175781 Z M 1215.867188 929.683594 " clip-rule="nonzero"/></clipPath><clipPath id="369a09573f"><path d="M 1060.171875 994.488281 L 835.585938 893.785156 L 1146.980469 764.175781 Z M 1060.171875 994.488281 " clip-rule="nonzero"/></clipPath><clipPath id="7c929f0813"><path d="M 0.535156 0.0820312 L 312 0.0820312 L 312 230.714844 L 0.535156 230.714844 Z M 0.535156 0.0820312 " clip-rule="nonzero"/></clipPath><clipPath id="e6fc59c6ac"><path d="M 380.867188 165.683594 L 69.25 295.386719 L 0.363281 129.878906 L 311.980469 0.175781 Z M 380.867188 165.683594 " clip-rule="nonzero"/></clipPath><clipPath id="eeb056956f"><path d="M 225.171875 230.488281 L 0.585938 129.785156 L 311.980469 0.175781 Z M 225.171875 230.488281 " clip-rule="nonzero"/></clipPath><clipPath id="4004838aa5"><rect x="0" width="312" y="0" height="231"/></clipPath><clipPath id="aac7a654ff"><path d="M 1024 764 L 1316.957031 764 L 1316.957031 1046 L 1024 1046 Z M 1024 764 " clip-rule="nonzero"/></clipPath><clipPath id="1a3577556c"><path d="M 1109.386719 1170.332031 L 939.660156 889.179688 L 1147.078125 763.964844 L 1316.808594 1045.117188 Z M 1109.386719 1170.332031 " clip-rule="nonzero"/></clipPath><clipPath id="c94ac1ea16"><path d="M 1024.589844 1029.863281 L 1147.207031 764.179688 L 1316.808594 1045.117188 Z M 1024.589844 1029.863281 " clip-rule="nonzero"/></clipPath><clipPath id="a2c3a7c949"><path d="M 0.410156 0.0820312 L 292.957031 0.0820312 L 292.957031 281.351562 L 0.410156 281.351562 Z M 0.410156 0.0820312 " clip-rule="nonzero"/></clipPath><clipPath id="6d00e5e7b9"><path d="M 85.386719 406.332031 L -84.339844 125.179688 L 123.078125 -0.0351562 L 292.808594 281.117188 Z M 85.386719 406.332031 " clip-rule="nonzero"/></clipPath><clipPath id="3a63985ab8"><path d="M 0.589844 265.863281 L 123.207031 0.179688 L 292.808594 281.117188 Z M 0.589844 265.863281 " clip-rule="nonzero"/></clipPath><clipPath id="2926647406"><rect x="0" width="293" y="0" height="282"/></clipPath><clipPath id="eca47f7878"><path d="M 109 6 L 827 6 L 827 1048 L 109 1048 Z M 109 6 " clip-rule="nonzero"/></clipPath><clipPath id="e60c93b1fc"><path d="M 1128.292969 246.507812 L 523.652344 1288.265625 L 109.539062 1047.910156 L 714.179688 6.152344 Z M 1128.292969 246.507812 " clip-rule="nonzero"/></clipPath><clipPath id="435fd7849f"><path d="M 826.042969 767.265625 L 109.679688 1047.667969 L 714.179688 6.152344 Z M 826.042969 767.265625 " clip-rule="nonzero"/></clipPath><clipPath id="60a15a8442"><path d="M 0.5625 0 L 717.175781 0 L 717.175781 1041.75 L 0.5625 1041.75 Z M 0.5625 0 " clip-rule="nonzero"/></clipPath><clipPath id="b3935d8fac"><path d="M 1019.292969 240.507812 L 414.652344 1282.265625 L 0.539062 1041.910156 L 605.179688 0.152344 Z M 1019.292969 240.507812 " clip-rule="nonzero"/></clipPath><clipPath id="190fa6a5bf"><path d="M 717.042969 761.265625 L 0.679688 1041.667969 L 605.179688 0.152344 Z M 717.042969 761.265625 " clip-rule="nonzero"/></clipPath><clipPath id="6c247356a6"><rect x="0" width="718" y="0" height="1042"/></clipPath><clipPath id="0c9555e7d8"><path d="M 725 98 L 1101 98 L 1101 772 L 725 772 Z M 725 98 " clip-rule="nonzero"/></clipPath><clipPath id="0fe59433d7"><path d="M 583.070312 151.621094 L 867.109375 44.648438 L 1100.695312 664.871094 L 816.65625 771.84375 Z M 583.070312 151.621094 " clip-rule="nonzero"/></clipPath><clipPath id="817a93a26d"><path d="M 725.089844 98.136719 L 1100.617188 664.671875 L 816.582031 771.644531 Z M 725.089844 98.136719 " clip-rule="nonzero"/></clipPath><clipPath id="c2dc7753cc"><path d="M 0 0.105469 L 375.726562 0.105469 L 375.726562 673.761719 L 0 673.761719 Z M 0 0.105469 " clip-rule="nonzero"/></clipPath><clipPath id="af94c4d907"><path d="M -141.929688 53.621094 L 142.109375 -53.351562 L 375.695312 566.871094 L 91.65625 673.84375 Z M -141.929688 53.621094 " clip-rule="nonzero"/></clipPath><clipPath id="7dde27eb60"><path d="M 0.0898438 0.136719 L 375.617188 566.671875 L 91.582031 673.644531 Z M 0.0898438 0.136719 " clip-rule="nonzero"/></clipPath><clipPath id="4b34e77f2d"><rect x="0" width="376" y="0" height="674"/></clipPath><clipPath id="51fc1aaf85"><path d="M 567.226562 0.664062 L 862.707031 0.664062 L 862.707031 258.832031 L 567.226562 258.832031 Z M 567.226562 0.664062 " clip-rule="nonzero"/></clipPath><clipPath id="8ed3b21cfd"><path d="M 714.753906 0.664062 L 862.277344 258.832031 L 567.226562 258.832031 Z M 714.753906 0.664062 " clip-rule="nonzero"/></clipPath><clipPath id="e98c3cf54e"><path d="M 0.226562 0.664062 L 295.414062 0.664062 L 295.414062 258.832031 L 0.226562 258.832031 Z M 0.226562 0.664062 " clip-rule="nonzero"/></clipPath><clipPath id="7a467782d3"><path d="M 147.753906 0.664062 L 295.277344 258.832031 L 0.226562 258.832031 Z M 147.753906 0.664062 " clip-rule="nonzero"/></clipPath><clipPath id="ba2e3277f5"><rect x="0" width="296" y="0" height="259"/></clipPath><clipPath id="092563b686"><rect x="0" width="1317" y="0" height="1289"/></clipPath><clipPath id="64d34fcce4"><path d="M 523.144531 10.894531 L 1736 10.894531 L 1736 1047.339844 L 523.144531 1047.339844 Z M 523.144531 10.894531 " clip-rule="nonzero"/></clipPath><clipPath id="68d14e950d"><path d="M 1129.355469 10.894531 L 1735.5625 1047.34375 L 523.144531 1047.34375 Z M 1129.355469 10.894531 " clip-rule="nonzero"/></clipPath><clipPath id="6bdf176bd4"><path d="M 0.144531 0.894531 L 1211 0.894531 L 1211 1037.339844 L 0.144531 1037.339844 Z M 0.144531 0.894531 " clip-rule="nonzero"/></clipPath><clipPath id="a7ea66583d"><path d="M 606.355469 0.894531 L 1212.5625 1037.34375 L 0.144531 1037.34375 Z M 606.355469 0.894531 " clip-rule="nonzero"/></clipPath><clipPath id="52a275a3cb"><rect x="0" width="1213" y="0" height="1038"/></clipPath><clipPath id="3befe96bc2"><path d="M 183 954 L 1354 954 L 1354 1640 L 183 1640 Z M 183 954 " clip-rule="nonzero"/></clipPath><clipPath id="4d04d264c2"><path d="M 0.5625 1195.542969 L 1171.347656 711.984375 L 1354.742188 1156.015625 L 183.957031 1639.574219 Z M 0.5625 1195.542969 " clip-rule="nonzero"/></clipPath><clipPath id="12f8951874"><path d="M 585.097656 954.117188 L 1353.023438 1156.726562 L 183.957031 1639.574219 Z M 585.097656 954.117188 " clip-rule="nonzero"/></clipPath><clipPath id="146317b831"><path d="M 0.894531 0.117188 L 1170.132812 0.117188 L 1170.132812 685.773438 L 0.894531 685.773438 Z M 0.894531 0.117188 " clip-rule="nonzero"/></clipPath><clipPath id="e50dd65487"><path d="M -182.4375 241.542969 L 988.347656 -242.015625 L 1171.742188 202.015625 L 0.957031 685.574219 Z M -182.4375 241.542969 " clip-rule="nonzero"/></clipPath><clipPath id="bae5550320"><path d="M 402.097656 0.117188 L 1170.023438 202.726562 L 0.957031 685.574219 Z M 402.097656 0.117188 " clip-rule="nonzero"/></clipPath><clipPath id="fc677e5055"><rect x="0" width="1171" y="0" height="686"/></clipPath><clipPath id="7495fe5626"><path d="M 689.617188 1389.5625 L 2047.910156 1389.5625 L 2047.910156 1648.285156 L 689.617188 1648.285156 Z M 689.617188 1389.5625 " clip-rule="nonzero"/></clipPath><clipPath id="1f6a7074fa"><path d="M 1368.339844 1389.5625 L 2047.0625 1648.285156 L 689.617188 1648.285156 Z M 1368.339844 1389.5625 " clip-rule="nonzero"/></clipPath><clipPath id="7fb73e0693"><path d="M 0.617188 0.5625 L 1358 0.5625 L 1358 259.285156 L 0.617188 259.285156 Z M 0.617188 0.5625 " clip-rule="nonzero"/></clipPath><clipPath id="52f5ed95f6"><path d="M 679.339844 0.5625 L 1358.0625 259.285156 L 0.617188 259.285156 Z M 679.339844 0.5625 " clip-rule="nonzero"/></clipPath><clipPath id="e360f69564"><rect x="0" width="1359" y="0" height="260"/></clipPath><clipPath id="978f8210eb"><path d="M 1317 1204 L 1809 1204 L 1809 1569 L 1317 1569 Z M 1317 1204 " clip-rule="nonzero"/></clipPath><clipPath id="feacc61d9a"><path d="M 1917.390625 1466.027344 L 1425.761719 1670.65625 L 1317.082031 1409.542969 L 1808.707031 1204.914062 Z M 1917.390625 1466.027344 " clip-rule="nonzero"/></clipPath><clipPath id="7d52cd3a0c"><path d="M 1671.75 1568.269531 L 1317.429688 1409.398438 L 1808.707031 1204.914062 Z M 1671.75 1568.269531 " clip-rule="nonzero"/></clipPath><clipPath id="a016d64df7"><path d="M 0.375 0.910156 L 491.875 0.910156 L 491.875 364.496094 L 0.375 364.496094 Z M 0.375 0.910156 " clip-rule="nonzero"/></clipPath><clipPath id="fe34dfb546"><path d="M 600.390625 262.027344 L 108.761719 466.65625 L 0.0820312 205.542969 L 491.707031 0.914062 Z M 600.390625 262.027344 " clip-rule="nonzero"/></clipPath><clipPath id="24fd671b24"><path d="M 354.75 364.269531 L 0.429688 205.398438 L 491.707031 0.914062 Z M 354.75 364.269531 " clip-rule="nonzero"/></clipPath><clipPath id="182ca779fd"><rect x="0" width="492" y="0" height="365"/></clipPath><clipPath id="4d38b4a907"><path d="M 1615 1204 L 2076.707031 1204 L 2076.707031 1649 L 1615 1649 Z M 1615 1204 " clip-rule="nonzero"/></clipPath><clipPath id="78e0e0362a"><path d="M 1749.398438 1845.691406 L 1481.625 1402.128906 L 1808.867188 1204.578125 L 2076.640625 1648.144531 Z M 1749.398438 1845.691406 " clip-rule="nonzero"/></clipPath><clipPath id="c2e86cbf82"><path d="M 1615.613281 1624.082031 L 1809.070312 1204.917969 L 2076.640625 1648.144531 Z M 1615.613281 1624.082031 " clip-rule="nonzero"/></clipPath><clipPath id="7872331256"><path d="M 0.441406 0.910156 L 461.707031 0.910156 L 461.707031 444.171875 L 0.441406 444.171875 Z M 0.441406 0.910156 " clip-rule="nonzero"/></clipPath><clipPath id="e528703f8e"><path d="M 134.398438 641.691406 L -133.375 198.128906 L 193.867188 0.578125 L 461.640625 444.144531 Z M 134.398438 641.691406 " clip-rule="nonzero"/></clipPath><clipPath id="c94a468f05"><path d="M 0.613281 420.082031 L 194.070312 0.917969 L 461.640625 444.144531 Z M 0.613281 420.082031 " clip-rule="nonzero"/></clipPath><clipPath id="0b696e8bc7"><rect x="0" width="462" y="0" height="445"/></clipPath><clipPath id="c8ed010152"><path d="M 172 9 L 1303 9 L 1303 1653 L 172 1653 Z M 172 9 " clip-rule="nonzero"/></clipPath><clipPath id="8f2f909ee4"><path d="M 1779.226562 388.207031 L 825.304688 2031.753906 L 171.972656 1652.554688 L 1125.894531 9.007812 Z M 1779.226562 388.207031 " clip-rule="nonzero"/></clipPath><clipPath id="1f045f2476"><path d="M 1302.378906 1209.789062 L 172.195312 1652.167969 L 1125.894531 9.007812 Z M 1302.378906 1209.789062 " clip-rule="nonzero"/></clipPath><clipPath id="ec8a9a213b"><path d="M 0.132812 0 L 1130.492188 0 L 1130.492188 1643.253906 L 0.132812 1643.253906 Z M 0.132812 0 " clip-rule="nonzero"/></clipPath><clipPath id="970e59d0b6"><path d="M 1607.226562 379.207031 L 653.304688 2022.753906 L -0.0273438 1643.554688 L 953.894531 0.0078125 Z M 1607.226562 379.207031 " clip-rule="nonzero"/></clipPath><clipPath id="6577fe50d7"><path d="M 1130.378906 1200.789062 L 0.195312 1643.167969 L 953.894531 0.0078125 Z M 1130.378906 1200.789062 " clip-rule="nonzero"/></clipPath><clipPath id="c6a5815876"><rect x="0" width="1131" y="0" height="1644"/></clipPath><clipPath id="bc3eb980cc"><path d="M 1143 154 L 1736 154 L 1736 1217 L 1143 1217 Z M 1143 154 " clip-rule="nonzero"/></clipPath><clipPath id="69705f12cb"><path d="M 919.050781 238.511719 L 1367.164062 69.742188 L 1735.683594 1048.246094 L 1287.570312 1217.011719 Z M 919.050781 238.511719 " clip-rule="nonzero"/></clipPath><clipPath id="414749d9a5"><path d="M 1143.109375 154.128906 L 1735.566406 1047.929688 L 1287.449219 1216.699219 Z M 1143.109375 154.128906 " clip-rule="nonzero"/></clipPath><clipPath id="aa86ae1e6e"><path d="M 0 0 L 592.679688 0 L 592.679688 1062.910156 L 0 1062.910156 Z M 0 0 " clip-rule="nonzero"/></clipPath><clipPath id="395878cbcc"><path d="M -223.949219 84.511719 L 224.164062 -84.257812 L 592.683594 894.246094 L 144.570312 1063.011719 Z M -223.949219 84.511719 " clip-rule="nonzero"/></clipPath><clipPath id="fe4c4b2e42"><path d="M 0.109375 0.128906 L 592.566406 893.929688 L 144.449219 1062.699219 Z M 0.109375 0.128906 " clip-rule="nonzero"/></clipPath><clipPath id="5b56bf5e5a"><rect x="0" width="593" y="0" height="1063"/></clipPath><clipPath id="9a4243433a"><path d="M 894.054688 0.347656 L 1360 0.347656 L 1360 407.648438 L 894.054688 407.648438 Z M 894.054688 0.347656 " clip-rule="nonzero"/></clipPath><clipPath id="eb85e92a7c"><path d="M 1126.796875 0.347656 L 1359.539062 407.648438 L 894.054688 407.648438 Z M 1126.796875 0.347656 " clip-rule="nonzero"/></clipPath><clipPath id="402c03fc6c"><path d="M 0.0546875 0.347656 L 465.613281 0.347656 L 465.613281 407.648438 L 0.0546875 407.648438 Z M 0.0546875 0.347656 " clip-rule="nonzero"/></clipPath><clipPath id="7e5d89c8ca"><path d="M 232.796875 0.347656 L 465.539062 407.648438 L 0.0546875 407.648438 Z M 232.796875 0.347656 " clip-rule="nonzero"/></clipPath><clipPath id="16e4882f1f"><rect x="0" width="466" y="0" height="408"/></clipPath><clipPath id="a2607dbad3"><rect x="0" width="2077" y="0" height="2032"/></clipPath></defs><g transform="matrix(1, 0, 0, 1, 974, 878)"><g clip-path="url(#092563b686)"><g clip-path="url(#5ea1ea7d68)"><g clip-path="url(#4a0cf23bb8)"><g transform="matrix(1, 0, 0, 1, 332, 7)"><g clip-path="url(#9eadb68f82)"><g clip-path="url(#098748d726)"><g clip-path="url(#3dda9b82e4)"><path fill="#fefeff" d="M 0.128906 0.347656 L 767.425781 0.347656 L 767.425781 657.296875 L 0.128906 657.296875 Z M 0.128906 0.347656 " fill-opacity="1" fill-rule="nonzero"/></g></g></g></g></g></g><g clip-path="url(#a5e212a95f)"><g clip-path="url(#a98b49a86c)"><g clip-path="url(#f6f5759c17)"><g transform="matrix(1, 0, 0, 1, 117, 605)"><g clip-path="url(#e4735299a7)"><g clip-path="url(#59771ba424)"><g clip-path="url(#9cdfbb5748)"><g clip-path="url(#2e2b567247)"><path fill="#fefeff" d="M -116.109375 153.234375 L 624.890625 -152.8125 L 741.136719 128.636719 L 0.136719 434.683594 Z M -116.109375 153.234375 " fill-opacity="1" fill-rule="nonzero"/></g></g></g></g></g></g></g></g><g clip-path="url(#c035483c2c)"><g clip-path="url(#248304b033)"><g transform="matrix(1, 0, 0, 1, 437, 881)"><g clip-path="url(#2c2849d5ac)"><g clip-path="url(#1584aa5670)"><g clip-path="url(#ec6de90d9f)"><path fill="#000000" d="M 0.648438 0.214844 L 860.957031 0.214844 L 860.957031 164.203125 L 0.648438 164.203125 Z M 0.648438 0.214844 " fill-opacity="1" fill-rule="nonzero"/></g></g></g></g></g></g><g clip-path="url(#3e12f28ce4)"><g clip-path="url(#80e56d42b7)"><g clip-path="url(#369a09573f)"><g transform="matrix(1, 0, 0, 1, 835, 764)"><g clip-path="url(#4004838aa5)"><g clip-path="url(#7c929f0813)"><g clip-path="url(#e6fc59c6ac)"><g clip-path="url(#eeb056956f)"><path fill="#fefeff" d="M 380.867188 165.683594 L 69.25 295.386719 L 0.363281 129.878906 L 311.980469 0.175781 Z M 380.867188 165.683594 " fill-opacity="1" fill-rule="nonzero"/></g></g></g></g></g></g></g></g><g clip-path="url(#aac7a654ff)"><g clip-path="url(#1a3577556c)"><g clip-path="url(#c94ac1ea16)"><g transform="matrix(1, 0, 0, 1, 1024, 764)"><g clip-path="url(#2926647406)"><g clip-path="url(#a2c3a7c949)"><g clip-path="url(#6d00e5e7b9)"><g clip-path="url(#3a63985ab8)"><path fill="#000000" d="M 85.386719 406.332031 L -84.339844 125.179688 L 123.078125 -0.0351562 L 292.808594 281.117188 Z M 85.386719 406.332031 " fill-opacity="1" fill-rule="nonzero"/></g></g></g></g></g></g></g></g><g clip-path="url(#eca47f7878)"><g clip-path="url(#e60c93b1fc)"><g clip-path="url(#435fd7849f)"><g transform="matrix(1, 0, 0, 1, 109, 6)"><g clip-path="url(#6c247356a6)"><g clip-path="url(#60a15a8442)"><g clip-path="url(#b3935d8fac)"><g clip-path="url(#190fa6a5bf)"><path fill="#fefeff" d="M 1019.292969 240.507812 L 414.652344 1282.265625 L 0.539062 1041.910156 L 605.179688 0.152344 Z M 1019.292969 240.507812 " fill-opacity="1" fill-rule="nonzero"/></g></g></g></g></g></g></g></g><g clip-path="url(#0c9555e7d8)"><g clip-path="url(#0fe59433d7)"><g clip-path="url(#817a93a26d)"><g transform="matrix(1, 0, 0, 1, 725, 98)"><g clip-path="url(#4b34e77f2d)"><g clip-path="url(#c2dc7753cc)"><g clip-path="url(#af94c4d907)"><g clip-path="url(#7dde27eb60)"><path fill="#fefeff" d="M -141.929688 53.621094 L 142.109375 -53.351562 L 375.695312 566.871094 L 91.65625 673.84375 Z M -141.929688 53.621094 " fill-opacity="1" fill-rule="nonzero"/></g></g></g></g></g></g></g></g><g clip-path="url(#51fc1aaf85)"><g clip-path="url(#8ed3b21cfd)"><g transform="matrix(1, 0, 0, 1, 567, 0.000000000000113687)"><g clip-path="url(#ba2e3277f5)"><g clip-path="url(#e98c3cf54e)"><g clip-path="url(#7a467782d3)"><path fill="#fefeff" d="M 0.226562 0.664062 L 295.707031 0.664062 L 295.707031 258.832031 L 0.226562 258.832031 Z M 0.226562 0.664062 " fill-opacity="1" fill-rule="nonzero"/></g></g></g></g></g></g></g></g><g transform="matrix(1, 0, 0, 1, 562, 771)"><g clip-path="url(#a2607dbad3)"><g clip-path="url(#64d34fcce4)"><g clip-path="url(#68d14e950d)"><g transform="matrix(1, 0, 0, 1, 523, 10)"><g clip-path="url(#52a275a3cb)"><g clip-path="url(#6bdf176bd4)"><g clip-path="url(#a7ea66583d)"><path fill="#ffffff" d="M 0.144531 0.894531 L 1210.683594 0.894531 L 1210.683594 1037.339844 L 0.144531 1037.339844 Z M 0.144531 0.894531 " fill-opacity="1" fill-rule="nonzero"/></g></g></g></g></g></g><g clip-path="url(#3befe96bc2)"><g clip-path="url(#4d04d264c2)"><g clip-path="url(#12f8951874)"><g transform="matrix(1, 0, 0, 1, 183, 954)"><g clip-path="url(#fc677e5055)"><g clip-path="url(#146317b831)"><g clip-path="url(#e50dd65487)"><g clip-path="url(#bae5550320)"><path fill="#ffffff" d="M -182.4375 241.542969 L 986.613281 -241.300781 L 1170.007812 202.730469 L 0.957031 685.574219 Z M -182.4375 241.542969 " fill-opacity="1" fill-rule="nonzero"/></g></g></g></g></g></g></g></g><g clip-path="url(#7495fe5626)"><g clip-path="url(#1f6a7074fa)"><g transform="matrix(1, 0, 0, 1, 689, 1389)"><g clip-path="url(#e360f69564)"><g clip-path="url(#7fb73e0693)"><g clip-path="url(#52f5ed95f6)"><path fill="#ffffff" d="M 0.617188 0.5625 L 1357.898438 0.5625 L 1357.898438 259.285156 L 0.617188 259.285156 Z M 0.617188 0.5625 " fill-opacity="1" fill-rule="nonzero"/></g></g></g></g></g></g><g clip-path="url(#978f8210eb)"><g clip-path="url(#feacc61d9a)"><g clip-path="url(#7d52cd3a0c)"><g transform="matrix(1, 0, 0, 1, 1317, 1204)"><g clip-path="url(#182ca779fd)"><g clip-path="url(#a016d64df7)"><g clip-path="url(#fe34dfb546)"><g clip-path="url(#24fd671b24)"><path fill="#ffffff" d="M 600.390625 262.027344 L 108.761719 466.65625 L 0.0820312 205.542969 L 491.707031 0.914062 Z M 600.390625 262.027344 " fill-opacity="1" fill-rule="nonzero"/></g></g></g></g></g></g></g></g><g clip-path="url(#4d38b4a907)"><g clip-path="url(#78e0e0362a)"><g clip-path="url(#c2e86cbf82)"><g transform="matrix(1, 0, 0, 1, 1615, 1204)"><g clip-path="url(#0b696e8bc7)"><g clip-path="url(#7872331256)"><g clip-path="url(#e528703f8e)"><g clip-path="url(#c94a468f05)"><path fill="#ffffff" d="M 134.398438 641.691406 L -133.375 198.128906 L 193.863281 0.578125 L 461.640625 444.144531 Z M 134.398438 641.691406 " fill-opacity="1" fill-rule="nonzero"/></g></g></g></g></g></g></g></g><g clip-path="url(#c8ed010152)"><g clip-path="url(#8f2f909ee4)"><g clip-path="url(#1f045f2476)"><g transform="matrix(1, 0, 0, 1, 172, 9)"><g clip-path="url(#c6a5815876)"><g clip-path="url(#ec8a9a213b)"><g clip-path="url(#970e59d0b6)"><g clip-path="url(#6577fe50d7)"><path fill="#ffffff" d="M 1607.226562 379.207031 L 653.304688 2022.753906 L -0.0273438 1643.554688 L 953.894531 0.0078125 Z M 1607.226562 379.207031 " fill-opacity="1" fill-rule="nonzero"/></g></g></g></g></g></g></g></g><g clip-path="url(#bc3eb980cc)"><g clip-path="url(#69705f12cb)"><g clip-path="url(#414749d9a5)"><g transform="matrix(1, 0, 0, 1, 1143, 154)"><g clip-path="url(#5b56bf5e5a)"><g clip-path="url(#aa86ae1e6e)"><g clip-path="url(#395878cbcc)"><g clip-path="url(#fe4c4b2e42)"><path fill="#ffffff" d="M -223.949219 84.511719 L 224.164062 -84.257812 L 592.683594 894.246094 L 144.570312 1063.011719 Z M -223.949219 84.511719 " fill-opacity="1" fill-rule="nonzero"/></g></g></g></g></g></g></g></g><g clip-path="url(#9a4243433a)"><g clip-path="url(#eb85e92a7c)"><g transform="matrix(1, 0, 0, 1, 894, 0.000000000000227374)"><g clip-path="url(#16e4882f1f)"><g clip-path="url(#402c03fc6c)"><g clip-path="url(#7e5d89c8ca)"><path fill="#ffffff" d="M 0.0546875 0.347656 L 466.222656 0.347656 L 466.222656 407.648438 L 0.0546875 407.648438 Z M 0.0546875 0.347656 " fill-opacity="1" fill-rule="nonzero"/></g></g></g></g></g></g></g></g></svg>