<svg xmlns="http://www.w3.org/2000/svg" xmlns:xlink="http://www.w3.org/1999/xlink" width="4500" zoomAndPan="magnify" viewBox="0 0 3374.88 3374.999861" height="4500" preserveAspectRatio="xMidYMid meet" version="1.0"><defs><clipPath id="e5b5c4fdce"><path d="M 0 0.0585938 L 3374.761719 0.0585938 L 3374.761719 3374.9375 L 0 3374.9375 Z M 0 0.0585938 " clip-rule="nonzero"/></clipPath><clipPath id="1dfc028ba2"><path d="M 332.128906 7.347656 L 1101 7.347656 L 1101 664.296875 L 332.128906 664.296875 Z M 332.128906 7.347656 " clip-rule="nonzero"/></clipPath><clipPath id="a151403cfc"><path d="M 716.375 7.347656 L 1100.617188 664.296875 L 332.128906 664.296875 Z M 716.375 7.347656 " clip-rule="nonzero"/></clipPath><clipPath id="9c0d5c73fe"><path d="M 0.128906 0.347656 L 768 0.347656 L 768 657.296875 L 0.128906 657.296875 Z M 0.128906 0.347656 " clip-rule="nonzero"/></clipPath><clipPath id="3fda72b812"><path d="M 384.375 0.347656 L 768.617188 657.296875 L 0.128906 657.296875 Z M 384.375 0.347656 " clip-rule="nonzero"/></clipPath><clipPath id="ea5c16f7cf"><rect x="0" width="769" y="0" height="658"/></clipPath><clipPath id="69ea277376"><path d="M 117 605 L 859 605 L 859 1040 L 117 1040 Z M 117 605 " clip-rule="nonzero"/></clipPath><clipPath id="7a410f8197"><path d="M 0.890625 758.234375 L 742.992188 451.734375 L 859.234375 733.179688 L 117.136719 1039.683594 Z M 0.890625 758.234375 " clip-rule="nonzero"/></clipPath><clipPath id="ed0b738c3b"><path d="M 371.394531 605.210938 L 858.144531 733.632812 L 117.136719 1039.683594 Z M 371.394531 605.210938 " clip-rule="nonzero"/></clipPath><clipPath id="93c5a71868"><path d="M 0 0.207031 L 741.335938 0.207031 L 741.335938 434.832031 L 0 434.832031 Z M 0 0.207031 " clip-rule="nonzero"/></clipPath><clipPath id="65be1cb277"><path d="M -116.109375 153.234375 L 625.992188 -153.265625 L 742.234375 128.179688 L 0.136719 434.683594 Z M -116.109375 153.234375 " clip-rule="nonzero"/></clipPath><clipPath id="1219c73a1d"><path d="M 254.394531 0.210938 L 741.144531 128.632812 L 0.136719 434.683594 Z M 254.394531 0.210938 " clip-rule="nonzero"/></clipPath><clipPath id="c91f9f7379"><rect x="0" width="742" y="0" height="435"/></clipPath><clipPath id="c92e6b869d"><path d="M 437.648438 881.214844 L 1298.597656 881.214844 L 1298.597656 1045.203125 L 437.648438 1045.203125 Z M 437.648438 881.214844 " clip-rule="nonzero"/></clipPath><clipPath id="d8c5d0b361"><path d="M 867.855469 881.214844 L 1298.0625 1045.203125 L 437.648438 1045.203125 Z M 867.855469 881.214844 " clip-rule="nonzero"/></clipPath><clipPath id="e17936801c"><path d="M 0.648438 0.214844 L 861 0.214844 L 861 164.203125 L 0.648438 164.203125 Z M 0.648438 0.214844 " clip-rule="nonzero"/></clipPath><clipPath id="947653ed02"><path d="M 430.855469 0.214844 L 861.0625 164.203125 L 0.648438 164.203125 Z M 430.855469 0.214844 " clip-rule="nonzero"/></clipPath><clipPath id="f667f105bc"><rect x="0" width="862" y="0" height="165"/></clipPath><clipPath id="6336d96c65"><path d="M 835 764 L 1147 764 L 1147 995 L 835 995 Z M 835 764 " clip-rule="nonzero"/></clipPath><clipPath id="d3cf530b87"><path d="M 1215.867188 929.683594 L 904.25 1059.386719 L 835.363281 893.878906 L 1146.980469 764.175781 Z M 1215.867188 929.683594 " clip-rule="nonzero"/></clipPath><clipPath id="92127742d8"><path d="M 1060.171875 994.488281 L 835.585938 893.785156 L 1146.980469 764.175781 Z M 1060.171875 994.488281 " clip-rule="nonzero"/></clipPath><clipPath id="40689810e8"><path d="M 0.535156 0.0820312 L 312 0.0820312 L 312 230.714844 L 0.535156 230.714844 Z M 0.535156 0.0820312 " clip-rule="nonzero"/></clipPath><clipPath id="c2019b8502"><path d="M 380.867188 165.683594 L 69.25 295.386719 L 0.363281 129.878906 L 311.980469 0.175781 Z M 380.867188 165.683594 " clip-rule="nonzero"/></clipPath><clipPath id="884c626d01"><path d="M 225.171875 230.488281 L 0.585938 129.785156 L 311.980469 0.175781 Z M 225.171875 230.488281 " clip-rule="nonzero"/></clipPath><clipPath id="08a0431340"><rect x="0" width="312" y="0" height="231"/></clipPath><clipPath id="8c76c5c299"><path d="M 1024 764 L 1316.957031 764 L 1316.957031 1046 L 1024 1046 Z M 1024 764 " clip-rule="nonzero"/></clipPath><clipPath id="58d43b9755"><path d="M 1109.386719 1170.332031 L 939.660156 889.179688 L 1147.078125 763.964844 L 1316.808594 1045.117188 Z M 1109.386719 1170.332031 " clip-rule="nonzero"/></clipPath><clipPath id="07646db52f"><path d="M 1024.589844 1029.863281 L 1147.207031 764.179688 L 1316.808594 1045.117188 Z M 1024.589844 1029.863281 " clip-rule="nonzero"/></clipPath><clipPath id="d80d540898"><path d="M 0.410156 0.0820312 L 292.957031 0.0820312 L 292.957031 281.351562 L 0.410156 281.351562 Z M 0.410156 0.0820312 " clip-rule="nonzero"/></clipPath><clipPath id="daa0e28e08"><path d="M 85.386719 406.332031 L -84.339844 125.179688 L 123.078125 -0.0351562 L 292.808594 281.117188 Z M 85.386719 406.332031 " clip-rule="nonzero"/></clipPath><clipPath id="0b7b5a6ca0"><path d="M 0.589844 265.863281 L 123.207031 0.179688 L 292.808594 281.117188 Z M 0.589844 265.863281 " clip-rule="nonzero"/></clipPath><clipPath id="cddeb1fa20"><rect x="0" width="293" y="0" height="282"/></clipPath><clipPath id="758f23789e"><path d="M 109 6 L 827 6 L 827 1048 L 109 1048 Z M 109 6 " clip-rule="nonzero"/></clipPath><clipPath id="c6acd61f42"><path d="M 1128.292969 246.507812 L 523.652344 1288.265625 L 109.539062 1047.910156 L 714.179688 6.152344 Z M 1128.292969 246.507812 " clip-rule="nonzero"/></clipPath><clipPath id="0843591d41"><path d="M 826.042969 767.265625 L 109.679688 1047.667969 L 714.179688 6.152344 Z M 826.042969 767.265625 " clip-rule="nonzero"/></clipPath><clipPath id="137923ed05"><path d="M 0.5625 0 L 717.175781 0 L 717.175781 1041.75 L 0.5625 1041.75 Z M 0.5625 0 " clip-rule="nonzero"/></clipPath><clipPath id="bf884f7743"><path d="M 1019.292969 240.507812 L 414.652344 1282.265625 L 0.539062 1041.910156 L 605.179688 0.152344 Z M 1019.292969 240.507812 " clip-rule="nonzero"/></clipPath><clipPath id="a9aac8b78b"><path d="M 717.042969 761.265625 L 0.679688 1041.667969 L 605.179688 0.152344 Z M 717.042969 761.265625 " clip-rule="nonzero"/></clipPath><clipPath id="38f6efd11c"><rect x="0" width="718" y="0" height="1042"/></clipPath><clipPath id="cc3d0b2893"><path d="M 725 98 L 1101 98 L 1101 772 L 725 772 Z M 725 98 " clip-rule="nonzero"/></clipPath><clipPath id="afb78ca8e3"><path d="M 583.070312 151.621094 L 867.109375 44.648438 L 1100.695312 664.871094 L 816.65625 771.84375 Z M 583.070312 151.621094 " clip-rule="nonzero"/></clipPath><clipPath id="29db32304e"><path d="M 725.089844 98.136719 L 1100.617188 664.671875 L 816.582031 771.644531 Z M 725.089844 98.136719 " clip-rule="nonzero"/></clipPath><clipPath id="c8777748ec"><path d="M 0 0.105469 L 375.726562 0.105469 L 375.726562 673.761719 L 0 673.761719 Z M 0 0.105469 " clip-rule="nonzero"/></clipPath><clipPath id="6801681838"><path d="M -141.929688 53.621094 L 142.109375 -53.351562 L 375.695312 566.871094 L 91.65625 673.84375 Z M -141.929688 53.621094 " clip-rule="nonzero"/></clipPath><clipPath id="972a44fd62"><path d="M 0.0898438 0.136719 L 375.617188 566.671875 L 91.582031 673.644531 Z M 0.0898438 0.136719 " clip-rule="nonzero"/></clipPath><clipPath id="0147436843"><rect x="0" width="376" y="0" height="674"/></clipPath><clipPath id="1d4a36cd90"><path d="M 567.226562 0.664062 L 862.707031 0.664062 L 862.707031 258.832031 L 567.226562 258.832031 Z M 567.226562 0.664062 " clip-rule="nonzero"/></clipPath><clipPath id="c59092337b"><path d="M 714.753906 0.664062 L 862.277344 258.832031 L 567.226562 258.832031 Z M 714.753906 0.664062 " clip-rule="nonzero"/></clipPath><clipPath id="6775b3bef6"><path d="M 0.226562 0.664062 L 295.414062 0.664062 L 295.414062 258.832031 L 0.226562 258.832031 Z M 0.226562 0.664062 " clip-rule="nonzero"/></clipPath><clipPath id="cab57af3b3"><path d="M 147.753906 0.664062 L 295.277344 258.832031 L 0.226562 258.832031 Z M 147.753906 0.664062 " clip-rule="nonzero"/></clipPath><clipPath id="88f52aa433"><rect x="0" width="296" y="0" height="259"/></clipPath><clipPath id="f25589e930"><rect x="0" width="1317" y="0" height="1289"/></clipPath><clipPath id="4a79c2e493"><path d="M 523.144531 10.894531 L 1736 10.894531 L 1736 1047.339844 L 523.144531 1047.339844 Z M 523.144531 10.894531 " clip-rule="nonzero"/></clipPath><clipPath id="40a5b12d07"><path d="M 1129.355469 10.894531 L 1735.5625 1047.34375 L 523.144531 1047.34375 Z M 1129.355469 10.894531 " clip-rule="nonzero"/></clipPath><clipPath id="e657db2ebd"><path d="M 0.144531 0.894531 L 1211 0.894531 L 1211 1037.339844 L 0.144531 1037.339844 Z M 0.144531 0.894531 " clip-rule="nonzero"/></clipPath><clipPath id="0ec7e55f32"><path d="M 606.355469 0.894531 L 1212.5625 1037.34375 L 0.144531 1037.34375 Z M 606.355469 0.894531 " clip-rule="nonzero"/></clipPath><clipPath id="8bfad02c0d"><rect x="0" width="1213" y="0" height="1038"/></clipPath><clipPath id="d3ce061b11"><path d="M 183 954 L 1354 954 L 1354 1640 L 183 1640 Z M 183 954 " clip-rule="nonzero"/></clipPath><clipPath id="5ed5f016c2"><path d="M 0.5625 1195.542969 L 1171.347656 711.984375 L 1354.742188 1156.015625 L 183.957031 1639.574219 Z M 0.5625 1195.542969 " clip-rule="nonzero"/></clipPath><clipPath id="c858a06d9d"><path d="M 585.097656 954.117188 L 1353.023438 1156.726562 L 183.957031 1639.574219 Z M 585.097656 954.117188 " clip-rule="nonzero"/></clipPath><clipPath id="2e47daf3b6"><path d="M 0.894531 0.117188 L 1170.132812 0.117188 L 1170.132812 685.773438 L 0.894531 685.773438 Z M 0.894531 0.117188 " clip-rule="nonzero"/></clipPath><clipPath id="c472c1806a"><path d="M -182.4375 241.542969 L 988.347656 -242.015625 L 1171.742188 202.015625 L 0.957031 685.574219 Z M -182.4375 241.542969 " clip-rule="nonzero"/></clipPath><clipPath id="cc211f7079"><path d="M 402.097656 0.117188 L 1170.023438 202.726562 L 0.957031 685.574219 Z M 402.097656 0.117188 " clip-rule="nonzero"/></clipPath><clipPath id="6ac358d028"><rect x="0" width="1171" y="0" height="686"/></clipPath><clipPath id="360c195704"><path d="M 689.617188 1389.5625 L 2047.910156 1389.5625 L 2047.910156 1648.285156 L 689.617188 1648.285156 Z M 689.617188 1389.5625 " clip-rule="nonzero"/></clipPath><clipPath id="eade22d583"><path d="M 1368.339844 1389.5625 L 2047.0625 1648.285156 L 689.617188 1648.285156 Z M 1368.339844 1389.5625 " clip-rule="nonzero"/></clipPath><clipPath id="42e386ea57"><path d="M 0.617188 0.5625 L 1358 0.5625 L 1358 259.285156 L 0.617188 259.285156 Z M 0.617188 0.5625 " clip-rule="nonzero"/></clipPath><clipPath id="60c7c9e67d"><path d="M 679.339844 0.5625 L 1358.0625 259.285156 L 0.617188 259.285156 Z M 679.339844 0.5625 " clip-rule="nonzero"/></clipPath><clipPath id="70db2f9ee2"><rect x="0" width="1359" y="0" height="260"/></clipPath><clipPath id="5087a795b4"><path d="M 1317 1204 L 1809 1204 L 1809 1569 L 1317 1569 Z M 1317 1204 " clip-rule="nonzero"/></clipPath><clipPath id="65a0c69f75"><path d="M 1917.390625 1466.027344 L 1425.761719 1670.65625 L 1317.082031 1409.542969 L 1808.707031 1204.914062 Z M 1917.390625 1466.027344 " clip-rule="nonzero"/></clipPath><clipPath id="d3ab7d3fbc"><path d="M 1671.75 1568.269531 L 1317.429688 1409.398438 L 1808.707031 1204.914062 Z M 1671.75 1568.269531 " clip-rule="nonzero"/></clipPath><clipPath id="eda711e093"><path d="M 0.375 0.910156 L 491.875 0.910156 L 491.875 364.496094 L 0.375 364.496094 Z M 0.375 0.910156 " clip-rule="nonzero"/></clipPath><clipPath id="80edc062aa"><path d="M 600.390625 262.027344 L 108.761719 466.65625 L 0.0820312 205.542969 L 491.707031 0.914062 Z M 600.390625 262.027344 " clip-rule="nonzero"/></clipPath><clipPath id="6a56709dfa"><path d="M 354.75 364.269531 L 0.429688 205.398438 L 491.707031 0.914062 Z M 354.75 364.269531 " clip-rule="nonzero"/></clipPath><clipPath id="27da00c61a"><rect x="0" width="492" y="0" height="365"/></clipPath><clipPath id="ad3af46b78"><path d="M 1615 1204 L 2076.707031 1204 L 2076.707031 1649 L 1615 1649 Z M 1615 1204 " clip-rule="nonzero"/></clipPath><clipPath id="440ec6ed91"><path d="M 1749.398438 1845.691406 L 1481.625 1402.128906 L 1808.867188 1204.578125 L 2076.640625 1648.144531 Z M 1749.398438 1845.691406 " clip-rule="nonzero"/></clipPath><clipPath id="dbd6466000"><path d="M 1615.613281 1624.082031 L 1809.070312 1204.917969 L 2076.640625 1648.144531 Z M 1615.613281 1624.082031 " clip-rule="nonzero"/></clipPath><clipPath id="3cfa4e3e0c"><path d="M 0.441406 0.910156 L 461.707031 0.910156 L 461.707031 444.171875 L 0.441406 444.171875 Z M 0.441406 0.910156 " clip-rule="nonzero"/></clipPath><clipPath id="61d25dcaa8"><path d="M 134.398438 641.691406 L -133.375 198.128906 L 193.867188 0.578125 L 461.640625 444.144531 Z M 134.398438 641.691406 " clip-rule="nonzero"/></clipPath><clipPath id="5c378f06e8"><path d="M 0.613281 420.082031 L 194.070312 0.917969 L 461.640625 444.144531 Z M 0.613281 420.082031 " clip-rule="nonzero"/></clipPath><clipPath id="f15e733ad9"><rect x="0" width="462" y="0" height="445"/></clipPath><clipPath id="406e8c1d72"><path d="M 172 9 L 1303 9 L 1303 1653 L 172 1653 Z M 172 9 " clip-rule="nonzero"/></clipPath><clipPath id="3d9b3ab483"><path d="M 1779.226562 388.207031 L 825.304688 2031.753906 L 171.972656 1652.554688 L 1125.894531 9.007812 Z M 1779.226562 388.207031 " clip-rule="nonzero"/></clipPath><clipPath id="038aba03a1"><path d="M 1302.378906 1209.789062 L 172.195312 1652.167969 L 1125.894531 9.007812 Z M 1302.378906 1209.789062 " clip-rule="nonzero"/></clipPath><clipPath id="e1aafd30de"><path d="M 0.132812 0 L 1130.492188 0 L 1130.492188 1643.253906 L 0.132812 1643.253906 Z M 0.132812 0 " clip-rule="nonzero"/></clipPath><clipPath id="5fed2799ea"><path d="M 1607.226562 379.207031 L 653.304688 2022.753906 L -0.0273438 1643.554688 L 953.894531 0.0078125 Z M 1607.226562 379.207031 " clip-rule="nonzero"/></clipPath><clipPath id="5dda0b971f"><path d="M 1130.378906 1200.789062 L 0.195312 1643.167969 L 953.894531 0.0078125 Z M 1130.378906 1200.789062 " clip-rule="nonzero"/></clipPath><clipPath id="524e15c6a2"><rect x="0" width="1131" y="0" height="1644"/></clipPath><clipPath id="c19c58bd09"><path d="M 1143 154 L 1736 154 L 1736 1217 L 1143 1217 Z M 1143 154 " clip-rule="nonzero"/></clipPath><clipPath id="2c66e77156"><path d="M 919.050781 238.511719 L 1367.164062 69.742188 L 1735.683594 1048.246094 L 1287.570312 1217.011719 Z M 919.050781 238.511719 " clip-rule="nonzero"/></clipPath><clipPath id="d7ff992cff"><path d="M 1143.109375 154.128906 L 1735.566406 1047.929688 L 1287.449219 1216.699219 Z M 1143.109375 154.128906 " clip-rule="nonzero"/></clipPath><clipPath id="f8c8bb2485"><path d="M 0 0 L 592.679688 0 L 592.679688 1062.910156 L 0 1062.910156 Z M 0 0 " clip-rule="nonzero"/></clipPath><clipPath id="6f53694f2b"><path d="M -223.949219 84.511719 L 224.164062 -84.257812 L 592.683594 894.246094 L 144.570312 1063.011719 Z M -223.949219 84.511719 " clip-rule="nonzero"/></clipPath><clipPath id="002a1d8191"><path d="M 0.109375 0.128906 L 592.566406 893.929688 L 144.449219 1062.699219 Z M 0.109375 0.128906 " clip-rule="nonzero"/></clipPath><clipPath id="8e9468e63d"><rect x="0" width="593" y="0" height="1063"/></clipPath><clipPath id="a748addb10"><path d="M 894.054688 0.347656 L 1360 0.347656 L 1360 407.648438 L 894.054688 407.648438 Z M 894.054688 0.347656 " clip-rule="nonzero"/></clipPath><clipPath id="00fa2af6fa"><path d="M 1126.796875 0.347656 L 1359.539062 407.648438 L 894.054688 407.648438 Z M 1126.796875 0.347656 " clip-rule="nonzero"/></clipPath><clipPath id="69c88fce83"><path d="M 0.0546875 0.347656 L 465.613281 0.347656 L 465.613281 407.648438 L 0.0546875 407.648438 Z M 0.0546875 0.347656 " clip-rule="nonzero"/></clipPath><clipPath id="c39ebc172e"><path d="M 232.796875 0.347656 L 465.539062 407.648438 L 0.0546875 407.648438 Z M 232.796875 0.347656 " clip-rule="nonzero"/></clipPath><clipPath id="0c84eddc22"><rect x="0" width="466" y="0" height="408"/></clipPath><clipPath id="c2d4cf97cf"><rect x="0" width="2077" y="0" height="2032"/></clipPath></defs><g clip-path="url(#e5b5c4fdce)"><path fill="#ffffff" d="M 0 0.0585938 L 3374.878906 0.0585938 L 3374.878906 3374.941406 L 0 3374.941406 Z M 0 0.0585938 " fill-opacity="1" fill-rule="nonzero"/><path fill="#ffffff" d="M 0 0.0585938 L 3374.878906 0.0585938 L 3374.878906 3374.941406 L 0 3374.941406 Z M 0 0.0585938 " fill-opacity="1" fill-rule="nonzero"/></g><g transform="matrix(1, 0, 0, 1, 974, 878)"><g clip-path="url(#f25589e930)"><g clip-path="url(#1dfc028ba2)"><g clip-path="url(#a151403cfc)"><g transform="matrix(1, 0, 0, 1, 332, 7)"><g clip-path="url(#ea5c16f7cf)"><g clip-path="url(#9c0d5c73fe)"><g clip-path="url(#3fda72b812)"><path fill="#fefeff" d="M 0.128906 0.347656 L 767.425781 0.347656 L 767.425781 657.296875 L 0.128906 657.296875 Z M 0.128906 0.347656 " fill-opacity="1" fill-rule="nonzero"/></g></g></g></g></g></g><g clip-path="url(#69ea277376)"><g clip-path="url(#7a410f8197)"><g clip-path="url(#ed0b738c3b)"><g transform="matrix(1, 0, 0, 1, 117, 605)"><g clip-path="url(#c91f9f7379)"><g clip-path="url(#93c5a71868)"><g clip-path="url(#65be1cb277)"><g clip-path="url(#1219c73a1d)"><path fill="#fefeff" d="M -116.109375 153.234375 L 624.890625 -152.8125 L 741.136719 128.636719 L 0.136719 434.683594 Z M -116.109375 153.234375 " fill-opacity="1" fill-rule="nonzero"/></g></g></g></g></g></g></g></g><g clip-path="url(#c92e6b869d)"><g clip-path="url(#d8c5d0b361)"><g transform="matrix(1, 0, 0, 1, 437, 881)"><g clip-path="url(#f667f105bc)"><g clip-path="url(#e17936801c)"><g clip-path="url(#947653ed02)"><path fill="#fefeff" d="M 0.648438 0.214844 L 860.957031 0.214844 L 860.957031 164.203125 L 0.648438 164.203125 Z M 0.648438 0.214844 " fill-opacity="1" fill-rule="nonzero"/></g></g></g></g></g></g><g clip-path="url(#6336d96c65)"><g clip-path="url(#d3cf530b87)"><g clip-path="url(#92127742d8)"><g transform="matrix(1, 0, 0, 1, 835, 764)"><g clip-path="url(#08a0431340)"><g clip-path="url(#40689810e8)"><g clip-path="url(#c2019b8502)"><g clip-path="url(#884c626d01)"><path fill="#fefeff" d="M 380.867188 165.683594 L 69.25 295.386719 L 0.363281 129.878906 L 311.980469 0.175781 Z M 380.867188 165.683594 " fill-opacity="1" fill-rule="nonzero"/></g></g></g></g></g></g></g></g><g clip-path="url(#8c76c5c299)"><g clip-path="url(#58d43b9755)"><g clip-path="url(#07646db52f)"><g transform="matrix(1, 0, 0, 1, 1024, 764)"><g clip-path="url(#cddeb1fa20)"><g clip-path="url(#d80d540898)"><g clip-path="url(#daa0e28e08)"><g clip-path="url(#0b7b5a6ca0)"><path fill="#fefeff" d="M 85.386719 406.332031 L -84.339844 125.179688 L 123.078125 -0.0351562 L 292.808594 281.117188 Z M 85.386719 406.332031 " fill-opacity="1" fill-rule="nonzero"/></g></g></g></g></g></g></g></g><g clip-path="url(#758f23789e)"><g clip-path="url(#c6acd61f42)"><g clip-path="url(#0843591d41)"><g transform="matrix(1, 0, 0, 1, 109, 6)"><g clip-path="url(#38f6efd11c)"><g clip-path="url(#137923ed05)"><g clip-path="url(#bf884f7743)"><g clip-path="url(#a9aac8b78b)"><path fill="#fefeff" d="M 1019.292969 240.507812 L 414.652344 1282.265625 L 0.539062 1041.910156 L 605.179688 0.152344 Z M 1019.292969 240.507812 " fill-opacity="1" fill-rule="nonzero"/></g></g></g></g></g></g></g></g><g clip-path="url(#cc3d0b2893)"><g clip-path="url(#afb78ca8e3)"><g clip-path="url(#29db32304e)"><g transform="matrix(1, 0, 0, 1, 725, 98)"><g clip-path="url(#0147436843)"><g clip-path="url(#c8777748ec)"><g clip-path="url(#6801681838)"><g clip-path="url(#972a44fd62)"><path fill="#fefeff" d="M -141.929688 53.621094 L 142.109375 -53.351562 L 375.695312 566.871094 L 91.65625 673.84375 Z M -141.929688 53.621094 " fill-opacity="1" fill-rule="nonzero"/></g></g></g></g></g></g></g></g><g clip-path="url(#1d4a36cd90)"><g clip-path="url(#c59092337b)"><g transform="matrix(1, 0, 0, 1, 567, 0.000000000000113687)"><g clip-path="url(#88f52aa433)"><g clip-path="url(#6775b3bef6)"><g clip-path="url(#cab57af3b3)"><path fill="#fefeff" d="M 0.226562 0.664062 L 295.707031 0.664062 L 295.707031 258.832031 L 0.226562 258.832031 Z M 0.226562 0.664062 " fill-opacity="1" fill-rule="nonzero"/></g></g></g></g></g></g></g></g><g transform="matrix(1, 0, 0, 1, 562, 771)"><g clip-path="url(#c2d4cf97cf)"><g clip-path="url(#4a79c2e493)"><g clip-path="url(#40a5b12d07)"><g transform="matrix(1, 0, 0, 1, 523, 10)"><g clip-path="url(#8bfad02c0d)"><g clip-path="url(#e657db2ebd)"><g clip-path="url(#0ec7e55f32)"><path fill="#11407b" d="M 0.144531 0.894531 L 1210.683594 0.894531 L 1210.683594 1037.339844 L 0.144531 1037.339844 Z M 0.144531 0.894531 " fill-opacity="1" fill-rule="nonzero"/></g></g></g></g></g></g><g clip-path="url(#d3ce061b11)"><g clip-path="url(#5ed5f016c2)"><g clip-path="url(#c858a06d9d)"><g transform="matrix(1, 0, 0, 1, 183, 954)"><g clip-path="url(#6ac358d028)"><g clip-path="url(#2e47daf3b6)"><g clip-path="url(#c472c1806a)"><g clip-path="url(#cc211f7079)"><path fill="#11407b" d="M -182.4375 241.542969 L 986.613281 -241.300781 L 1170.007812 202.730469 L 0.957031 685.574219 Z M -182.4375 241.542969 " fill-opacity="1" fill-rule="nonzero"/></g></g></g></g></g></g></g></g><g clip-path="url(#360c195704)"><g clip-path="url(#eade22d583)"><g transform="matrix(1, 0, 0, 1, 689, 1389)"><g clip-path="url(#70db2f9ee2)"><g clip-path="url(#42e386ea57)"><g clip-path="url(#60c7c9e67d)"><path fill="#11407b" d="M 0.617188 0.5625 L 1357.898438 0.5625 L 1357.898438 259.285156 L 0.617188 259.285156 Z M 0.617188 0.5625 " fill-opacity="1" fill-rule="nonzero"/></g></g></g></g></g></g><g clip-path="url(#5087a795b4)"><g clip-path="url(#65a0c69f75)"><g clip-path="url(#d3ab7d3fbc)"><g transform="matrix(1, 0, 0, 1, 1317, 1204)"><g clip-path="url(#27da00c61a)"><g clip-path="url(#eda711e093)"><g clip-path="url(#80edc062aa)"><g clip-path="url(#6a56709dfa)"><path fill="#11407b" d="M 600.390625 262.027344 L 108.761719 466.65625 L 0.0820312 205.542969 L 491.707031 0.914062 Z M 600.390625 262.027344 " fill-opacity="1" fill-rule="nonzero"/></g></g></g></g></g></g></g></g><g clip-path="url(#ad3af46b78)"><g clip-path="url(#440ec6ed91)"><g clip-path="url(#dbd6466000)"><g transform="matrix(1, 0, 0, 1, 1615, 1204)"><g clip-path="url(#f15e733ad9)"><g clip-path="url(#3cfa4e3e0c)"><g clip-path="url(#61d25dcaa8)"><g clip-path="url(#5c378f06e8)"><path fill="#11407b" d="M 134.398438 641.691406 L -133.375 198.128906 L 193.863281 0.578125 L 461.640625 444.144531 Z M 134.398438 641.691406 " fill-opacity="1" fill-rule="nonzero"/></g></g></g></g></g></g></g></g><g clip-path="url(#406e8c1d72)"><g clip-path="url(#3d9b3ab483)"><g clip-path="url(#038aba03a1)"><g transform="matrix(1, 0, 0, 1, 172, 9)"><g clip-path="url(#524e15c6a2)"><g clip-path="url(#e1aafd30de)"><g clip-path="url(#5fed2799ea)"><g clip-path="url(#5dda0b971f)"><path fill="#11407b" d="M 1607.226562 379.207031 L 653.304688 2022.753906 L -0.0273438 1643.554688 L 953.894531 0.0078125 Z M 1607.226562 379.207031 " fill-opacity="1" fill-rule="nonzero"/></g></g></g></g></g></g></g></g><g clip-path="url(#c19c58bd09)"><g clip-path="url(#2c66e77156)"><g clip-path="url(#d7ff992cff)"><g transform="matrix(1, 0, 0, 1, 1143, 154)"><g clip-path="url(#8e9468e63d)"><g clip-path="url(#f8c8bb2485)"><g clip-path="url(#6f53694f2b)"><g clip-path="url(#002a1d8191)"><path fill="#11407b" d="M -223.949219 84.511719 L 224.164062 -84.257812 L 592.683594 894.246094 L 144.570312 1063.011719 Z M -223.949219 84.511719 " fill-opacity="1" fill-rule="nonzero"/></g></g></g></g></g></g></g></g><g clip-path="url(#a748addb10)"><g clip-path="url(#00fa2af6fa)"><g transform="matrix(1, 0, 0, 1, 894, 0.000000000000227374)"><g clip-path="url(#0c84eddc22)"><g clip-path="url(#69c88fce83)"><g clip-path="url(#c39ebc172e)"><path fill="#11407b" d="M 0.0546875 0.347656 L 466.222656 0.347656 L 466.222656 407.648438 L 0.0546875 407.648438 Z M 0.0546875 0.347656 " fill-opacity="1" fill-rule="nonzero"/></g></g></g></g></g></g></g></g></svg>